<svg id="Capa_1" enable-background="new 0 0 512 512" height="512" viewBox="0 0 512 512" width="512" xmlns="http://www.w3.org/2000/svg"><g><path d="m60 151h-60v285c0 24.813 20.187 45 45 45h422c24.813 0 45-20.187 45-45v-405h-452zm0 285c0 8.271-6.729 15-15 15s-15-6.729-15-15v-255h30zm30 0v-375h392v375c0 8.271-6.729 15-15 15h-379.57c1.664-4.694 2.57-9.743 2.57-15z"/><path d="m319.523 261.96-30.919 12.807c-5.607-8.484-12.887-15.764-21.371-21.371l12.807-30.919-27.717-11.48-12.934 31.224c-4.347-.787-8.817-1.221-13.389-1.221s-9.042.434-13.39 1.221l-12.934-31.224-27.717 11.48 12.807 30.919c-8.338 5.51-15.521 12.632-21.088 20.929l-32.565-12.509-10.757 28.005 31.956 12.275c-.848 4.509-1.312 9.152-1.312 13.904s.464 9.395 1.313 13.904l-31.956 12.275 10.757 28.005 32.566-12.509c5.567 8.298 12.749 15.419 21.088 20.929l-12.807 30.919 27.717 11.48 12.934-31.224c4.348.787 8.818 1.221 13.39 1.221s9.042-.434 13.39-1.221l12.934 31.224 27.717-11.48-12.807-30.919c8.484-5.607 15.764-12.887 21.371-21.371l30.919 12.807 11.48-27.716-31.224-12.933c.787-4.348 1.221-8.818 1.221-13.39s-.434-9.042-1.221-13.39l31.224-12.933zm-93.523 99.04c-24.813 0-45-20.187-45-45s20.187-45 45-45 45 20.187 45 45-20.187 45-45 45z"/><path d="m211 301h30v30h-30z"/><path d="m361 211h91v30h-91z"/><path d="m361 271h91v30h-91z"/><path d="m361 331h91v30h-91z"/><path d="m361 391h91v30h-91z"/><path d="m120 181h332v-90h-332zm30-60h272v30h-272z"/></g></svg>